<svg xmlns="http://www.w3.org/2000/svg" style="display: none;">

  <!-- NAVIGATION -->
  <symbol id="back" viewBox="0 0 105 105">
    <path d="M128.5,127H111v8L93,124.979,111,115v8h17.5a12.5,12.5,0,0,0,0-25H116V94h12.5A16.5,16.5,0,0,1,128.5,127Z" transform="translate(-66.5 -62)"/>
  </symbol>

  <symbol id="guide-active" viewBox="0 0 72 72">
    <path style="fill-rule:evenodd;" d="M29 52h13v3H29v-3zm22-11v-7c0-1.7-1.3-3-3-3s-3 1.3-3 3v7c0 1.7 1.3 3 3 3s3-1.3 3-3zm-3 5c-2.8 0-5-2.2-5-5h-3c0 3.7 2.6 6.8 6 7.7V52h-2v3h8v-3h-2v-3.3c3.4-.9 6-4 6-7.7h-3c0 2.8-2.2 5-5 5zm5-24H19c-2.2 0-4 1.8-4 4v20c0 2.2 1.8 4 4 4h23v-.1c-2.4-1.4-4-4-4-6.9v-5h5v-4c0-2.8 2.2-5 5-5s5 2.2 5 5v2h4V26c0-2.2-1.8-4-4-4z"/>
  </symbol>

  <symbol id="guide" viewBox="0 0 62 62">
    <path d="M46 35h2v.5c0 3.1-2.1 5.6-5 6.3V45h2v2h-7v-2h2v-3.2c-2.9-.7-5-3.2-5-6.3V35h2v.5c0 2.5 2 4.5 4.5 4.5s4.5-2 4.5-4.5V35zM25 47h11v-2H25v2zm19-11.5v-6c0-1.4-1.1-2.5-2.5-2.5S39 28.1 39 29.5v6c0 1.4 1.1 2.5 2.5 2.5s2.5-1.1 2.5-2.5zM45 19H17c-2.2 0-4 1.8-4 4v16c0 2.2 1.8 4 4 4h19c-1-.8-1.7-1.8-2.3-3H18c-1.1 0-2-.9-2-2V24c0-1.1.9-2 2-2h26c1.1 0 2 .9 2 2v7h3v-8c0-2.2-1.8-4-4-4z"/>
  </symbol>

  <symbol id="help-active" viewBox="0 0 72 72">
    <path d="M38.6 43.3c0-2.3.6-4.1 1.7-5.3l2.5-2.4c2.4-2.6 3.7-5.2 3.7-7.8 0-2.7-.8-4.8-2.4-6.3-1.6-1.5-3.8-2.3-6.7-2.3-2.8 0-5 .8-6.7 2.3-1.7 1.5-2.6 3.5-2.6 5.9h4.2c0-1.4.5-2.5 1.4-3.3.9-.8 2.2-1.2 3.7-1.2 1.6 0 2.8.4 3.6 1.3.8.9 1.2 2.1 1.2 3.7s-.6 3.2-1.9 4.6l-3 3.1c-1.2 1.2-2 2.4-2.3 3.4-.4 1-.6 2.5-.6 4.3h4.2zm-3.8 8.9c.4.5 1 .7 1.8.7s1.4-.2 1.9-.7c.4-.5.6-1 .6-1.7s-.2-1.3-.6-1.7c-.4-.5-1-.7-1.9-.7-.8 0-1.4.2-1.8.7-.4.5-.6 1-.6 1.7s.2 1.2.6 1.7z"/>
  </symbol>

  <symbol id="help" viewBox="0 0 62 62">
    <path d="M33.2 37.3c0-2 .5-3.5 1.4-4.5l2.1-2.1c2.1-2.2 3.2-4.5 3.2-6.7 0-2.3-.7-4.1-2.1-5.4-1.4-1.3-3.3-2-5.8-2-2.4 0-4.3.6-5.8 1.9s-2.2 3-2.3 5.1h3.6c0-1.2.4-2.1 1.2-2.8.8-.7 1.9-1.1 3.2-1.1 1.4 0 2.4.4 3.1 1.2.7.8 1.1 1.8 1.1 3.2 0 1.4-.5 2.7-1.6 4l-2.6 2.6c-1 1.1-1.7 2.1-2 3s-.5 2.1-.5 3.7h3.8v-.1zM30 44.9c.4.4.9.6 1.6.6.7 0 1.2-.2 1.6-.6.4-.4.5-.9.5-1.5s-.2-1.1-.5-1.5c-.4-.4-.9-.6-1.6-.6-.7 0-1.2.2-1.6.6-.4.4-.5.9-.5 1.5s.1 1.1.5 1.5z"/>
  </symbol>

  <symbol id="home-active" viewBox="0 0 72 72">
    <path style="fill-rule:evenodd;" d="M55 38h-2v13c0 2.4-1.6 5-4 5h-7c-2.4 0-4-2.6-4-5v-6h-5v6c0 2.4-1.6 5-4 5h-6c-2.4 0-4-2.6-4-5V38h-2.3c-2.2 0-3.6-3.5-2-5 1.5-1.5 11.2-11.3 16.1-16.1C32.6 15.1 34 14 36 14s3.3 1.1 5.2 2.9C46 21.7 55.5 31.5 57 33c1.5 1.5.2 5-2 5z"/>
  </symbol>

  <symbol id="home" viewBox="0 0 62 62">
    <path d="M48.7 27.3l-4.2-4.1-8.1-7.8-2.6-2.5c-.6-.6-1.5-.9-2.3-.9-.9 0-1.7.3-2.3.9l-2.6 2.5-3.1 3-5 4.8-4.2 4.1c-1.1 1-1.3 2.6-.7 4C14 32.4 15.7 33 17 33v11c0 2.1 1.3 4 3.4 4h5.1c2.1 0 3.6-1.9 3.6-4v-5h5v5c0 2.1 1.5 4 3.5 4h5.1c2.1 0 3.4-1.9 3.4-4V33c1.3 0 2.9-.6 3.4-1.7.5-1.4.2-3-.8-4zM45.9 30H43v14c0 .4 0 1-.4 1h-5.1c-.4 0-.5-.6-.5-1v-8H26v8c0 .4-.2 1-.6 1h-5.1c-.3 0-.3-.6-.3-1V30h-2.9c-.6 0-1.4-.2-1-.7l3.6-3.3 5.4-5.1 3.4-3.2 2.8-2.7c.1-.1.1-.1.2-.1s.2 0 .2.1l2.8 2.7 8.8 8.3 3.6 3.3c.4.5-.4.7-1 .7z"/>
  </symbol>

  <symbol id="mylibrary-active" viewBox="0 0 72 72">
    <path style="fill-rule:evenodd;" d="M55 29h-4v-3c0-2.2-1.8-4-4-4H21c-2.2 0-4 1.8-4 4v22c0 1.9 1.3 3.5 3.1 3.9H49c2.2 0 2.6-1.8 3.4-4l5.2-15c.8-2.1-.4-3.9-2.6-3.9zm-34-3h26v3H27c-2.2 0-2.6 1.8-3.4 4L21 40.5V26z"/>
  </symbol>

  <symbol id="mylibrary" viewBox="0 0 62 62">
    <path style="fill-rule:evenodd;" d="M49 25h-5v-3c0-1.7-1.3-3-3-3H18c-1.7 0-3 1.5-3 3.2v20c0 1.6 1.2 2.8 2.8 2.8H43c1 0 2.3-.8 2.6-2.1l4.3-15.5c.4-1.2.1-2.4-.9-2.4zm-31-3h23v3H23c-1 0-2.2 1.2-2.6 2.4L18 36.1V22zm26 12.8L42 42H20l4-14h22l-2 6.8z"/>
  </symbol>

  <symbol id="vodlanding-active" viewBox="0 0 72 72">
    <path style="fill-rule:evenodd;" d="M24 17h24c3.3 0 6 2.7 6 6v26c0 3.3-2.7 6-6 6H24c-3.3 0-6-2.7-6-6V23c0-3.3 2.7-6 6-6zm-3 4h2v2h-2v-2zm0 7h2v2h-2v-2zm0 7h2v2h-2v-2zm0 7h2v2h-2v-2zm0 7h2v2h-2v-2zm28-28h2v2h-2v-2zm0 7h2v2h-2v-2zm0 7h2v2h-2v-2zm0 7h2v2h-2v-2zm0 7h2v2h-2v-2z"/>
  </symbol>

  <symbol id="vodlanding" viewBox="0 0 62 62">
    <path style="fill-rule:evenodd;" d="M42 15H20c-2.2 0-4 1.8-4 4v24c0 2.2 1.8 4 4 4h22c2.2 0 4-1.8 4-4V19c0-2.2-1.8-4-4-4zM20 44h-2v-2h2v2zm0-6h-2v-2h2v2zm0-6h-2v-2h2v2zm0-6h-2v-2h2v2zm0-6h-2v-2h2v2zm20 25H22V32h18v13zm0-15H22V17h18v13zm4 14h-2v-2h2v2zm0-6h-2v-2h2v2zm0-6h-2v-2h2v2zm0-6h-2v-2h2v2zm0-6h-2v-2h2v2z"/>
  </symbol>

  <symbol id="settings-active" viewBox="0 0 72 72">
    <path style="fill-rule:evenodd;" d="M52.5 32.6H50c-.4-1.5-1-2.8-1.7-4.1l2.1-2.1c.7-.7.7-1.7 0-2.4L48 21.6c-.7-.7-1.7-.7-2.4 0l-2.1 2.1c-1.2-.8-2.6-1.3-4.1-1.7v-2.5c0-1.1-.9-2.1-2.1-2.1h-2.6c-1.1 0-2.1.9-2.1 2.1V22c-1.5.4-2.8 1-4.1 1.7l-2.1-2.1c-.7-.7-1.7-.7-2.4 0L21.7 24c-.7.7-.7 1.7 0 2.4l2.1 2.1c-.8 1.2-1.4 2.6-1.7 4.1h-2.6c-1.1 0-2.1.9-2.1 2.1v2.6c0 1.1.9 2.1 2.1 2.1h2.6c.3 1.5.9 2.8 1.7 4.1l-2.1 2.1c-.7.7-.7 1.7 0 2.4l2.4 2.4c.6.7 1.7.7 2.4 0l2.1-2.1c1.2.8 2.6 1.4 4.1 1.7v2.6c0 1.1.9 2.1 2.1 2.1h2.6c1.1 0 2.1-.9 2.1-2.1V50c1.5-.3 2.8-.9 4.1-1.7l2.1 2.1c.7.7 1.7.7 2.4 0l2.4-2.4c.7-.7.7-1.7 0-2.4l-2.1-2.1c.8-1.2 1.4-2.6 1.7-4.1h2.5c1.1 0 2.1-.9 2.1-2.1v-2.6c-.1-1.2-1-2.1-2.2-2.1zM36 46.5c-5.8 0-10.5-4.7-10.5-10.4 0-5.8 4.7-10.5 10.5-10.5S46.4 30.2 46.4 36c0 5.8-4.6 10.5-10.4 10.5zm.1-17.1c-3.6 0-6.5 2.9-6.5 6.5s2.9 6.5 6.5 6.5 6.5-2.9 6.5-6.5-2.9-6.5-6.5-6.5zm0 9.3c-1.5 0-2.8-1.2-2.8-2.8 0-1.5 1.2-2.8 2.8-2.8 1.5 0 2.8 1.2 2.8 2.8 0 1.5-1.2 2.8-2.8 2.8z"/>
  </symbol>

  <symbol id="settings" viewBox="0 0 62 62">
    <path style="fill-rule:evenodd;" d="M45.2 28.1H43c-.3-1.3-.8-2.4-1.5-3.5l1.8-1.8c.6-.6.6-1.5 0-2.1l-2.1-2.1c-.6-.6-1.5-.6-2.1 0l-1.8 1.8c-1.1-.7-2.2-1.2-3.5-1.5v-2.2c0-1-.8-1.8-1.8-1.8h-2.3c-1 0-1.8.8-1.8 1.8V19c-1.3.3-2.4.8-3.5 1.5l-1.8-1.8c-.6-.6-1.5-.6-2.1 0l-2.1 2.1c-.6.6-.6 1.5 0 2.1l1.8 1.8c-.7 1.1-1.2 2.2-1.5 3.5h-2.2c-1 0-1.8.8-1.8 1.8v2.3c0 1 .8 1.8 1.8 1.8H19c.3 1.3.8 2.4 1.5 3.5l-1.8 1.8c-.6.6-.6 1.5 0 2.1l2.1 2.1c.6.6 1.5.6 2.1 0l1.8-1.8c1.1.7 2.3 1.2 3.5 1.5v2.2c0 1 .8 1.8 1.8 1.8h2.3c1 0 1.8-.8 1.8-1.8V43c1.3-.3 2.4-.8 3.5-1.5l1.8 1.8c.6.6 1.5.6 2.1 0l2.1-2.1c.6-.6.6-1.5 0-2.1l-1.8-1.8c.7-1.1 1.2-2.3 1.5-3.5h2.2c1 0 1.8-.8 1.8-1.8v-2.3c-.3-.8-1.1-1.6-2.1-1.6zM31 40c-5 0-9-4-9-9s4-9 9-9 9 4 9 9-4 9-9 9z"/>
  </symbol>

  <symbol id="watch" viewBox="0 0 62 62">
    <path style="opacity:0.78;fill:#FFFFFF;" class="st0" d="M19.7,16.7v28.6c0,1.4,1.5,2.2,2.7,1.5l25-14.3c1.2-0.7,1.2-2.4,0-3.1l-25-14.3C21.2,14.5,19.7,15.3,19.7,16.7z
      "/>
    <g style="opacity:0.5;">
      <path style="fill:#FFFFFF;" d="M31,3c15.4,0,28,12.6,28,28S46.4,59,31,59S3,46.4,3,31S15.6,3,31,3 M31,0C13.9,0,0,13.9,0,31
        c0,17.1,13.9,31,31,31s31-13.9,31-31C62,13.9,48.1,0,31,0L31,0z"/>
    </g>
  </symbol>

  <symbol id="watch-active" viewBox="-22 0 70 40">
    <path style="fill-rule:evenodd;fill:#fff" d="M0,2.1v33.2c0,1.6,1.7,2.6,3.1,1.8l29.1-16.6c1.4-0.8,1.4-2.8,0-3.6L3.1,0.3C1.7-0.5,0,0.5,0,2.1z"/>
  </symbol>


  <!-- GUIDE -->
  <symbol id="arrow-right" viewBox="0 0 39.009998 44">
    <path d="m 19.01,0 0,44 20,-22 z m 0,13 0,18 -6.99,0 0,-18 z M 3.08,13 3.08,31 0,31 0,13 Z M 6,13 9,13 9,31 6,31 Z" />
  </symbol>

  <symbol id="play" viewBox="0 0 26 26">
    <path d="M1097,275a13,13,0,1,1,13-13A13,13,0,0,1,1097,275Zm0-24a11,11,0,1,0,11,11A11,11,0,0,0,1097,251Zm-4,4,11,7.06L1093,269V255Z" transform="translate(-1084 -249)"/>
  </symbol>

  <symbol id="category-0" viewBox="0 0 32 32"><!-- All -->
    <path style="fill-rule:evenodd;" d="M293,469H267a2,2,0,0,1-2-2V451a2,2,0,0,1,2-2h26a2,2,0,0,1,2,2v16A2,2,0,0,1,293,469Zm-1-16a1,1,0,0,0-1-1H269a1,1,0,0,0-1,1v12a1,1,0,0,0,1,1h22a1,1,0,0,0,1-1V453Zm-7,21H275v-3h10v3Z" transform="translate(-264 -444)"/>
  </symbol>

  <symbol id="category-1" viewBox="0 0 32 32"><!-- Kids -->
    <path style="fill-rule:evenodd;" d="M275 553h9v2h-9v-2zm0 24h9v2h-9v-2zm-3-21h15a4 4 0 0 1 4 4v12a4 4 0 0 1-4 4h-15a4 4 0 0 1-4-4v-12a4 4 0 0 1 4-4zm3.5 6a1.5 1.5 0 1 1-1.5 1.5 1.5 1.5 0 0 1 1.5-1.5zm8 0a1.5 1.5 0 1 1-1.5 1.5 1.5 1.5 0 0 1 1.5-1.5zm-8.45 6a4.8 4.8 0 0 0 8.9 0H285a5.78 5.78 0 0 1-11 0h1.05z" transform="translate(-263.5 -550)"/>
  </symbol>

  <symbol id="category-2" viewBox="0 0 32 32"><!-- Sports -->
    <path style="fill-rule:evenodd;" d="M280 641a15 15 0 1 1-15 15 15 15 0 0 1 15-15zm10.565 4.355A12.985 12.985 0 0 0 285.05 655h9.9c.022.332.05.662.05 1s-.028.668-.05 1h-9.9a12.985 12.985 0 0 0 5.515 9.645A15.26 15.26 0 0 1 289 667.98a14.988 14.988 0 0 1-5.95-10.98H281v13.95c-.332.02-.662.05-1 .05s-.668-.03-1-.05V657h-2.05a14.985 14.985 0 0 1-5.95 10.98 15.26 15.26 0 0 1-1.567-1.335A12.985 12.985 0 0 0 274.95 657h-9.9c-.022-.332-.05-.662-.05-1s.028-.668.05-1h9.9a12.985 12.985 0 0 0-5.515-9.645A15.26 15.26 0 0 1 271 644.02a14.985 14.985 0 0 1 5.95 10.98H279v-13.95c.332-.02.662-.05 1-.05s.668.03 1 .05V655h2.05a14.988 14.988 0 0 1 5.95-10.98 15.26 15.26 0 0 1 1.565 1.335z" transform="translate(-264 -640)"/>
  </symbol>

  <symbol id="category-3" viewBox="0 0 32 32"><!-- HD -->
    <path style="fill-rule:evenodd;" d="M267 736h25a2 2 0 0 1 2 2v16a2 2 0 0 1-2 2h-25a2 2 0 0 1-2-2v-16a2 2 0 0 1 2-2zm22.828 9.966a8.176 8.176 0 0 1-.862 2.49 5.56 5.56 0 0 1-1.268 1.48 4.033 4.033 0 0 1-1.485.796 7.1 7.1 0 0 1-1.8.273h-4.354L282.13 741h4.355a4.443 4.443 0 0 1 2 .37 2.523 2.523 0 0 1 1.09 1.057 3.7 3.7 0 0 1 .42 1.605 7.77 7.77 0 0 1-.167 1.934zm-3-2.117a1.658 1.658 0 0 0-1.51-.588h-.73l-1.135 5.47h.72a3.18 3.18 0 0 0 1.35-.216 1.932 1.932 0 0 0 .764-.75 5.7 5.7 0 0 0 .58-1.74 3.236 3.236 0 0 0-.035-2.177zm-15.76-2.85H274l-.726 3.5h3.2l.726-3.5h2.944l-2.076 10.01h-2.944l.84-4.05h-3.2l-.84 4.05h-2.93z" transform="translate(-263.5 -730)"/>
  </symbol>

  <symbol id="category-4" viewBox="0 0 32 32"><!-- Music -->
    <path d="M291 848h-2a1 1 0 0 1-1-1v-6a1 1 0 0 1 1-1v-16h3v24h-1zm-6 0h-3a1 1 0 0 1-1-1v-6a1 1 0 0 1 1-1v-16h3v16a1 1 0 0 1 1 1v6a1 1 0 0 1-1 1zm-7 0h-3a1 1 0 0 1-1-1v-6a1 1 0 0 1 1-1v-16h3v16a1 1 0 0 1 1 1v6a1 1 0 0 1-1 1zm-7 0h-3v-24h3v16a1 1 0 0 1 1 1v6a1 1 0 0 1-1 1z" transform="translate(-264 -820)"/>
  </symbol>

  <symbol id="category-5" viewBox="0 0 27 46.01"><!-- Movies -->
    <path style="fill-rule:evenodd;" d="M17,8c.92.85,1.41,2.35,0,3s-2.1.08-3-1-.43-1.61,0-2A1.93,1.93,0,0,1,17,8ZM16,3c1.16,0,2.16-1.41,2-2a1.93,1.93,0,0,0-2-1c-.94.06-2.34,1.09-2,2S14.84,3,16,3Zm1,1c-1.39.21-.91-.33-2,0s.2,1,1,2,2.39,2.15,3,2,.13-1.88,0-3S18.39,3.79,17,4Zm2,6c-.22.84,1.63,1.34,3,1s1.59-.53,1-2-1.47-1.12-2,0S19.26,9,19,10Zm1-3c.73,1,1.28-.34,2-1s-.06-2.91-1-3-1.09,1.13-1,2S19.75,6.66,20,7Zm7,8.5L25,43c-.37,1.93-.57,3-2.5,3a2.15,2.15,0,0,1-1.8-.8,3.46,3.46,0,0,1-4.7-.26,3.49,3.49,0,0,1-5,0,3.46,3.46,0,0,1-4.7.26,2.15,2.15,0,0,1-1.8.8C2.57,46,2.37,44.78,2,43L0,15.5a3.5,3.5,0,0,1,6-2.44,3.49,3.49,0,0,1,5,0,3.49,3.49,0,0,1,5,0,3.49,3.49,0,0,1,5,0,3.5,3.5,0,0,1,6,2.44Zm-2,0a1.5,1.5,0,0,0-3,0v9.4a9.46,9.46,0,0,0-2-1.39v-8a1.5,1.5,0,0,0-3,0v6.91a14.86,14.86,0,0,0-2-.33V15.5a1.5,1.5,0,0,0-3,0v6.58a14.86,14.86,0,0,0-2,.33V15.5a1.5,1.5,0,0,0-3,0v8A9.46,9.46,0,0,0,5,24.9V15.5a1.5,1.5,0,0,0-3,0L4,44s1-.67,1-1.5V33.1a9.46,9.46,0,0,0,2,1.39v8a1.5,1.5,0,0,0,3,0V35.59a14.86,14.86,0,0,0,2,.33V42.5a1.5,1.5,0,0,0,3,0V35.92a14.86,14.86,0,0,0,2-.33V42.5a1.5,1.5,0,0,0,3,0v-8a9.46,9.46,0,0,0,2-1.39v9.4c0,.83,1,1.5,1,1.5ZM1,11c.55.36,1.16-.75,2,0s2.23-.52,3-1,.21-.8-1-1S1.64,7.45,1,9C.73,9.66.45,10.64,1,11ZM13.5,24C8.81,24,5,26.24,5,29s3.81,5,8.5,5S22,31.76,22,29,18.19,24,13.5,24ZM9,8c-1.13.47-1.78,2.56-1,2s1.87.36,3,1,1.16-1,1-2S10.11,7.54,9,8Zm2-1a2.24,2.24,0,0,0,3-1c.31-.58-1.25-3-2-4S9.32,3.2,10,4,10.06,6.51,11,7ZM7,7c.18-.84,1.56,0,2-1S7.17,3.77,6,4,2.92,6,4,7,6.82,7.84,7,7Z" transform="translate(0 0.01)"/>
  </symbol>

  <symbol id="category-10" viewBox="0 0 32 32"><!-- XXX -->
    <path style="fill-rule:evenodd;" d="M280 641a15 15 0 1 1-15 15 15 15 0 0 1 15-15zm10.565 4.355A12.985 12.985 0 0 0 285.05 655h9.9c.022.332.05.662.05 1s-.028.668-.05 1h-9.9a12.985 12.985 0 0 0 5.515 9.645A15.26 15.26 0 0 1 289 667.98a14.988 14.988 0 0 1-5.95-10.98H281v13.95c-.332.02-.662.05-1 .05s-.668-.03-1-.05V657h-2.05a14.985 14.985 0 0 1-5.95 10.98 15.26 15.26 0 0 1-1.567-1.335A12.985 12.985 0 0 0 274.95 657h-9.9c-.022-.332-.05-.662-.05-1s.028-.668.05-1h9.9a12.985 12.985 0 0 0-5.515-9.645A15.26 15.26 0 0 1 271 644.02a14.985 14.985 0 0 1 5.95 10.98H279v-13.95c.332-.02.662-.05 1-.05s.668.03 1 .05V655h2.05a14.988 14.988 0 0 1 5.95-10.98 15.26 15.26 0 0 1 1.565 1.335z" transform="translate(-264 -640)"/>
  </symbol>

  <symbol id="category-11"  viewBox="0 0 26 26"><!-- Favorite -->
    <path style="fill-rule:evenodd;" d="M13,0l3.546,9.455L26,10.046l-7.682,6.5L21.274,26,13,20.683,4.727,26l2.955-9.455L0,10.046l9.455-.591Z"/>
  </symbol>


  <!-- PLAYER -->
  <symbol id="player-skip-back" viewBox="0 0 50 50">
    <path d="M663.517,939.557h-0.328l-5.344,2.332v1.969l3.586-1.6V956.7h2.086V939.557Zm13.495,6.879a10.353,10.353,0,0,0-1.166-5.285,4.185,4.185,0,0,0-6.867.094,11.066,11.066,0,0,0-1.107,5.578v2.93a10.566,10.566,0,0,0,1.172,5.39,4.135,4.135,0,0,0,6.867-.076,11.383,11.383,0,0,0,1.1-5.642v-2.989Zm-2.074,3.551a9.871,9.871,0,0,1-.621,3.9,1.959,1.959,0,0,1-1.863,1.278,2.014,2.014,0,0,1-1.9-1.354,10.139,10.139,0,0,1-.621-4.049v-3.515a9.493,9.493,0,0,1,.621-3.8,1.968,1.968,0,0,1,1.875-1.26,1.993,1.993,0,0,1,1.911,1.283,10,10,0,0,1,.6,3.991v3.527Z" transform="translate(-643 -921)"/>
    <path d="M668,967a18.881,18.881,0,0,1-18.741-22h3.032A16,16,0,1,0,668,932v4l-7-4.759V936l-8-5.438L661,925v4.866L668,925v4A19,19,0,0,1,668,967Z" transform="translate(-643 -921)"/>
  </symbol>

  <symbol id="player-restart" viewBox="0 0 50 50">
    <path d="M814,963a14.951,14.951,0,0,1-10.6-4.384l2.829-2.829a11.016,11.016,0,1,0-.01-15.533l2.818,2.818-11.293,2.849,2.808-11.334,2.83,2.83A15,15,0,1,1,814,963Z" transform="translate(-788.375 -923)"/>
  </symbol>

  <symbol id="player-pause" viewBox="0 0 50 50">
    <path d="M964,963V933h8v30h-8Zm-16-30h8v30h-8V933Z" transform="translate(-935 -923)"/>
  </symbol>

  <symbol id="player-play" viewBox="0 0 50 50">
    <path d="M948,933l24,15.124L948,963V933Z" transform="translate(-935 -923)"/>
  </symbol>

  <symbol id="player-info" viewBox="0 0 50 50">
    <path d="M1106,968a20,20,0,1,1,20-20A20,20,0,0,1,1106,968Zm0-38a18,18,0,1,0,18,18A18,18,0,0,0,1106,930Zm-2,15h4v12h-4V945Zm0-8h4v4h-4v-4Z" transform="translate(-1081 -923)"/>
  </symbol>

  <symbol id="player-back-to-live" viewBox="0 0 50 50">
    <path d="m 24.237833,41.019651 a 14.966,14.966 0 0 0 10.6,-4.384 l -2.83,-2.829 a 11.016,11.016 0 1 1 0.01,-15.532 l -2.82,2.817 11.29,2.849 -2.81,-11.334 -2.83,2.83 a 14.994,14.994 0 1 0 -10.61,25.583 z" />
  </symbol>

  <symbol id="player-skip-forward" viewBox="0 0 50 50">
    <path d="M1247.52,939.557h-0.33l-5.34,2.332v1.969l3.58-1.6V956.7h2.09V939.557Zm13.49,6.879a10.464,10.464,0,0,0-1.16-5.285,4.188,4.188,0,0,0-6.87.094,11.041,11.041,0,0,0-1.11,5.578v2.93a10.558,10.558,0,0,0,1.17,5.39,4.138,4.138,0,0,0,6.87-.076,11.318,11.318,0,0,0,1.1-5.642v-2.989Zm-2.07,3.551a9.929,9.929,0,0,1-.62,3.9,1.964,1.964,0,0,1-1.87,1.278,2,2,0,0,1-1.89-1.354,10.009,10.009,0,0,1-.63-4.049v-3.515a9.5,9.5,0,0,1,.63-3.8,1.955,1.955,0,0,1,1.87-1.26,1.988,1.988,0,0,1,1.91,1.283,9.953,9.953,0,0,1,.6,3.991v3.527Z" transform="translate(-1227 -921)"/>
    <path d="M1252,967a19,19,0,0,0,19-19,18.56,18.56,0,0,0-.26-3h-3.03a16.458,16.458,0,0,1,.29,3,16,16,0,1,1-16-16v4l7-4.759V936l8-5.438L1259,925v4.866L1252,925v4A19,19,0,0,0,1252,967Z" transform="translate(-1227 -921)"/>
  </symbol>

  <symbol id="player-rewind" viewBox="0 0 29 20">
    <path d="M29 20l-14 -9.237V20l-14.988 -9.888L15 0v9.446L29 0v20z"/>
  </symbol>

  <symbol id="player-fast-forward" viewBox="0 0 29 20">
    <path d="M0 0l14 9.237V0l14.988 9.888L14 20v-9.446L0 20V0z"/>
  </symbol>

  <symbol id="player-skip-rewind" viewBox="0 0 38 42">
    <path d="M1010,837a18.881,18.881,0,0,1-18.741-22h3.032A16,16,0,1,0,1010,802v4l-7-4.759V806l-8-5.438,8-5.562v4.866l7-4.866v4A19,19,0,0,1,1010,837Z" transform="translate(-991 -795)"/>
  </symbol>

  <symbol id="player-skip-fast-forward" viewBox="0 0 38 42">
    <path d="M1010,837a19,19,0,0,0,19-19,18.56,18.56,0,0,0-.26-3h-3.03a16.466,16.466,0,0,1,.29,3,16,16,0,1,1-16-16v4l7-4.759V806l8-5.438L1017,795v4.866L1010,795v4A19,19,0,0,0,1010,837Z" transform="translate(-991 -795)"/>
  </symbol>

  <!-- DETAIL -->
  <symbol id="detail-watch" viewBox="0 0 50 50">
    <path style="fill-rule: evenodd;" d="M426,554a23,23,0,1,1-23,23A23,23,0,0,1,426,554Zm-7.991,12.325v21.324a1.316,1.316,0,0,0,1.974,1.147l18.346-10.662a1.329,1.329,0,0,0,0-2.294l-18.346-10.662A1.316,1.316,0,0,0,418.009,566.325Z" transform="translate(-401 -552)"/>
  </symbol>

  <symbol id="detail-favorite-active" viewBox="0 0 50 50">
    <path style="fill-rule: evenodd;" d="M1209,554a23,23,0,1,1-23,23A23,23,0,0,1,1209,554Zm0,9,3.55,9.455,9.45,0.591-7.68,6.5,2.95,9.455-8.27-5.318L1200.73,589l2.95-9.455-7.68-6.5,9.45-.591Z" transform="translate(-1184 -552)"/>
  </symbol>

  <symbol id="detail-favorite" viewBox="0 0 46 46">
    <path id="ico_-_fav" class="st0" d="M31.3,35L23,29.7L14.7,35l3-9.5L10,19l9.5-0.6L23,9l3.5,9.5L36,19l-7.7,6.5L31.3,35z"/>
    <path class="st0" d="M23,2c11.6,0,21,9.4,21,21s-9.4,21-21,21S2,34.6,2,23S11.4,2,23,2 M23,0C10.3,0,0,10.3,0,23s10.3,23,23,23
      s23-10.3,23-23S35.7,0,23,0L23,0z"/>
  </symbol>

  <symbol id="detail-record" viewBox="0 0 50 50">
    <path style="fill-rule: evenodd;" d="M956,554a23,23,0,1,1-23,23A23,23,0,0,1,956,554Zm0,15a8,8,0,1,1-8,8A8,8,0,0,1,956,569Z" transform="translate(-931 -552)"/>
  </symbol>

  <symbol id="detail-start-over" viewBox="0 0 50 50">
    <path style="fill-rule: evenodd;" d="M671,554a23,23,0,1,1-23,23A23,23,0,0,1,671,554Zm8.606,15.049a11.729,11.729,0,0,0-16.891-.334l-1.626-1.625a0.634,0.634,0,0,0-1.061.284l-0.966,3.606-0.966,3.607a0.634,0.634,0,0,0,.776.777l3.607-.967,3.606-.966a0.634,0.634,0,0,0,.285-1.061l-1.626-1.626a8.847,8.847,0,1,1,.417,12.9,0.6,0.6,0,0,0-.82.012l-1.19,1.19a0.6,0.6,0,0,0,.012.861A11.717,11.717,0,0,0,679.606,569.049Z" transform="translate(-646 -552)"/>
  </symbol>

  <symbol id="detail-rent" viewBox="0 0 50 50">
    <path style="fill-rule: evenodd;" d="M426,554a23,23,0,1,1-23,23A23,23,0,0,1,426,554Zm-8.333,15.291s0.24,1.017.333,1.709h18l-3,9H420v2h13v2H418v-4l-2.167-9.564c0-.093-1.833-1.909-1.833-1.909L415.467,567S417.618,569.291,417.667,569.291ZM430,588a3,3,0,0,1-3-3h6A3,3,0,0,1,430,588Zm-9,0a3,3,0,0,1-3-3h6A3,3,0,0,1,421,588Z" transform="translate(-401 -552)"/>
  </symbol>

  <symbol id="detail-trailer" viewBox="0 0 50 50">
    <path style="fill-rule: evenodd;" d="M671,600a23,23,0,1,1,23-23A23,23,0,0,1,671,600Zm11-33a2,2,0,0,0-2-2H662a2,2,0,0,0-2,2v18a2,2,0,0,0,2,2h18a2,2,0,0,0,2-2V567Zm-4,16h2v2h-2v-2Zm0-4h2v2h-2v-2Zm0-4h2v2h-2v-2Zm0-4h2v2h-2v-2Zm0-4h2v2h-2v-2Zm-2,18H666V567h10v18Zm-14-2h2v2h-2v-2Zm0-4h2v2h-2v-2Zm0-4h2v2h-2v-2Zm0-4h2v2h-2v-2Zm0-4h2v2h-2v-2Z" transform="translate(-646 -554)"/>
  </symbol>

  <symbol id="detail-more" viewBox="0 0 50 50">
    <path style="fill-rule: evenodd;" d="M1597,554a23,23,0,1,1-23,23A23,23,0,0,1,1597,554Zm12,26a3,3,0,1,1,3-3A3,3,0,0,1,1609,580Zm-12,0a3,3,0,1,1,3-3A3,3,0,0,1,1597,580Zm-12,0a3,3,0,1,1,3-3A3,3,0,0,1,1585,580Z" transform="translate(-1572 -552)"/>
  </symbol>

  <symbol id="detail-mark-inactive" viewBox="0 0 50 50">
    <path style="fill-rule: evenodd;" d="M1200,567c-8.28,0-15,7.04-15,10s6.72,10,15,10,15-7.04,15-10S1208.28,567,1200,567Zm0,17a7,7,0,1,1,7-7A7,7,0,0,1,1200,584Zm0-10a3,3,0,1,0,3,3A3,3,0,0,0,1200,574Zm0-17.5a20.5,20.5,0,1,1-20.5,20.5,20.525,20.525,0,0,1,20.5-20.5m0-2.5a23,23,0,1,0,23,23,23,23,0,0,0-23-23h0Z" transform="translate(-1175 -552)"/>
  </symbol>

  <symbol id="detail-mark-active" viewBox="0 0 50 50">
    <path style="fill-rule: evenodd;" d="M1200,600a23,23,0,1,1,23-23A23,23,0,0,1,1200,600Zm0-33c-8.28,0-15,7.04-15,10s6.72,10,15,10,15-7.04,15-10S1208.28,567,1200,567Zm0,17a7,7,0,1,1,7-7A7,7,0,0,1,1200,584Zm0-10a3,3,0,1,0,3,3A3,3,0,0,0,1200,574Z" transform="translate(-1175 -552)"/>
  </symbol>

  <symbol id="my-library-reminders" viewBox="0 0 85 85">
    <path class="st0" d="M41.8,0.2c22.9,0,41.5,18.6,41.5,41.5S64.7,83.2,41.8,83.2S0.3,64.7,0.3,41.8S18.8,0.2,41.8,0.2z M78.7,41.8
				c0-20.4-16.5-36.9-36.9-36.9S4.8,21.4,4.8,41.8c0,20.4,16.5,36.9,36.9,36.9S78.7,62.2,78.7,41.8z"/>
			<path class="st0" d="M60,24.2c0.3-0.4,0.5-0.8,0.5-1.2c0-0.4-0.2-0.9-0.5-1.2s-0.8-0.5-1.2-0.5c-0.5,0-0.9,0.2-1.2,0.5
				c-0.4,0.4-0.6,1-0.5,1.6l0.2,1.2l1.2,0.2C59,24.8,59.5,24.6,60,24.2z M55.2,23.7c-0.2-1.1,0.1-2.3,1-3.2c1.4-1.4,3.7-1.4,5.1,0h0
				c1.4,1.4,1.4,3.7,0,5.1c-0.8,0.9-2,1.2-3.1,1c4.4,5.7,2.7,12.7-2.5,17.9L45.2,57.2L24.9,36.9l12.6-10.4
				C42.7,21.2,49.5,19.5,55.2,23.7z"/>
			<path class="st0" d="M45.2,60.9c0,0.9-0.3,1.7-0.9,2.3c-0.9,0.9-2.3,1.2-3.6,0.7c-0.4-0.2-0.7-0.4-1-0.7l-4.9-4.9
				c-0.9,1.9-3.1,2.7-5.1,1.9c-2-0.9-2.9-3.2-2.1-5.2c0.4-0.9,1.1-1.6,1.9-2l-11-11c-1.3-1.3-1.3-3.3,0-4.6c0.9-0.9,2.3-1.2,3.5-0.7
				c0.1,0,0.2,0.1,0.4,0.2l22.4,22.4C45.1,59.8,45.2,60.3,45.2,60.9z"/>
  </symbol>

  <symbol id="my-library-favorites" viewBox="0 0 85 85">
    <path class="st0" d="M41.5,0C18.6,0,0,18.6,0,41.5S18.6,83,41.5,83S83,64.4,83,41.5S64.4,0,41.5,0z M41.5,78.4
		c-20.4,0-36.9-16.5-36.9-36.9c0-20.4,16.5-36.9,36.9-36.9c20.4,0,36.9,16.5,36.9,36.9C78.4,61.9,61.9,78.4,41.5,78.4z M48.8,32.4
		L42,14.3l-6.8,18.1L17,33.6L31.8,46l-5.7,18.1L42,53.9l15.9,10.2L52.2,46l14.7-12.5L48.8,32.4z"/>
  </symbol>

  <symbol id="detail-seasons" viewBox="0 0 46 46">
    <path fill-rule="evenodd" d="M13,20v10h16V20H13z M19,28v-6l6,2.9L19,28z M13,20v10h16V20H13z M19,28v-6l6,2.9L19,28z
    	 M13,20v10h16V20H13z M19,28v-6l6,2.9L19,28z M13,20v10h16V20H13z M19,28v-6l6,2.9L19,28z M23,0C16.7,0,10.9,2.6,6.7,6.7
    	C2.6,10.9,0,16.7,0,23c0,12.7,10.3,23,23,23s23-10.3,23-23S35.7,0,23,0z M31,32H11V18h20V32z M35,29h-3v-2h1V16H16v1h-2v-3h21V29z
    	 M29,20H13v10h16V20z M19,28v-6l6,2.9L19,28z M13,20v10h16V20H13z M19,28v-6l6,2.9L19,28z M13,20v10h16V20H13z M19,28v-6l6,2.9
    	L19,28z"/>
  </symbol>

  <symbol id="now-tv-filter-arrow" viewBox="0 0 97.69 55.85">
    <path d="M90.69,0a7,7,0,0,0-5,2l-36.9,36.9L11.95,2A7,7,0,0,0,2.05,12L43.9,53.8a7,7,0,0,0,9.9,0L95.64,12a7,7,0,0,0-5-12Z" transform="translate(0 0)"/>
  </symbol>

  <symbol id="detail-reminders-active" viewBox="0 0 46 46">
    <path fill-rule="evenodd" d="M32.4,11.6c-0.3,0-0.5,0.1-0.7,0.3c-0.2,0.2-0.3,0.6-0.3,0.9l0.1,0.7l0.7,0.1c0.3,0.1,0.6,0,0.9-0.3
      c0.2-0.2,0.3-0.4,0.3-0.7c0-0.3-0.1-0.5-0.3-0.7C32.9,11.7,32.7,11.6,32.4,11.6z M23,0C10.3,0,0,10.3,0,23c0,12.7,10.3,23,23,23
      c12.7,0,23-10.3,23-23C46,10.3,35.7,0,23,0z M24.4,34.9c-0.5,0.5-1.3,0.7-2,0.4c-0.2-0.1-0.4-0.2-0.6-0.4l-2.7-2.7
      c-0.5,1-1.7,1.5-2.8,1.1c-1.1-0.5-1.6-1.8-1.2-2.9c0.2-0.5,0.6-0.9,1-1.1l-6.1-6.1c-0.7-0.7-0.7-1.8,0-2.5c0.5-0.5,1.3-0.7,2-0.4
      c0.1,0,0.1,0.1,0.2,0.1l12.4,12.4c0.1,0.3,0.2,0.5,0.2,0.8C24.9,34.1,24.7,34.5,24.4,34.9z M33.8,14c-0.5,0.5-1.1,0.7-1.7,0.6
      c2.5,3.2,1.5,7-1.4,9.9l-5.8,7.1L13.7,20.3l7-5.8c2.9-2.9,6.6-3.9,9.8-1.5c-0.1-0.6,0.1-1.3,0.5-1.8c0.8-0.8,2-0.8,2.8,0l0,0
      C34.6,12,34.6,13.2,33.8,14z" transform="translate(0 0)"/>
  </symbol>

  <symbol id="detail-reminders" viewBox="0 0 46 46">
    <path class="st0" d="M33.8,11.2c-0.8-0.8-2-0.8-2.8,0c-0.5,0.5-0.7,1.1-0.5,1.8c-3.2-2.3-6.9-1.3-9.8,1.5l-7,5.8l11.2,11.2l5.8-7
      c2.9-2.9,3.9-6.8,1.4-9.9c1.1,0.2,2.1-0.5,2.3-1.6C34.5,12.3,34.2,11.7,33.8,11.2z M33.1,13.3c-0.2,0.2-0.6,0.3-0.9,0.3l-0.7-0.1
      l-0.1-0.7c-0.1-0.3,0-0.6,0.3-0.9c0.2-0.2,0.4-0.3,0.7-0.3s0.5,0.1,0.7,0.3C33.5,12.3,33.5,12.9,33.1,13.3z"/>
    <path class="st0" d="M24.9,33.6c0,0.5-0.2,0.9-0.5,1.3c-0.7,0.7-1.8,0.7-2.5,0l-2.7-2.7c-0.5,1.1-1.8,1.5-2.9,1
      c-1.1-0.5-1.6-1.8-1.1-2.9c0.2-0.5,0.6-0.9,1-1.1l-6.1-6.1c-0.5-0.5-0.7-1.3-0.4-2c0.4-0.9,1.4-1.3,2.3-1c0.1,0,0.1,0.1,0.2,0.1
      l12.4,12.4C24.9,33,24.9,33.3,24.9,33.6z"/>
    <path class="st0" d="M23,2c11.6,0,21,9.4,21,21s-9.4,21-21,21S2,34.6,2,23S11.4,2,23,2 M23,0C10.3,0,0,10.3,0,23s10.3,23,23,23
      s23-10.3,23-23S35.7,0,23,0L23,0z"/>
  </symbol>

  <!-- SELECTION -->
  <symbol id="selection-clear" viewBox="0 0 24 24">
    <path d="M1226.41,102l2.58,2.583L1207.57,126l-2.58-2.584Zm-18.84,0,21.42,21.42L1226.41,126l-21.42-21.421Z" transform="translate(-1205 -102)"/>
  </symbol>

  <symbol id="selection-nowtv" viewBox="0 0 170 170">
    <path d="M1066,536V512a6,6,0,0,0-6-6H972a6,6,0,0,0-6,6v48a6,6,0,0,0,6,6h53a33.7,33.7,0,0,0,3.81,5.878A43.41,43.41,0,0,0,1034,577H969a14,14,0,0,1-14-14V509a14,14,0,0,1,14-14h94a14,14,0,0,1,14,14v27h-11Zm-33,53H997v-6h36v6Zm10-37V530a8,8,0,0,1,16,0v22A8,8,0,0,1,1043,552Zm3,21.407A21.989,21.989,0,0,1,1029,552v-3h8v3a14,14,0,0,0,28,0v-3h8v3a21.989,21.989,0,0,1-17,21.407V583h7v6h-24v-6h7v-9.593Z" transform="translate(-931 -457)"/>
  </symbol>

  <symbol id="search" viewBox="0 0 105 105">
    <path d="m 63.4,58.45 13.4,13.4 -4.9,4.9 -13.5,-13.3 -1,-3.1 c -3.1,2.5 -7,3.9 -11.2,3.9 -9.9,0 -18,-8.1 -18,-18 0,-9.9 8.1,-18 18,-18 9.9,0 18,8.1 18,18 0,4.2 -1.5,8.1 -3.9,11.1 l 3.1,1.1 z M 46.2,34.25 c -6.6,0 -12,5.4 -12,12 0,6.6 5.4,12 12,12 6.6,0 12,-5.4 12,-12 0,-6.6 -5.4,-12 -12,-12 z" />
  </symbol>

  <symbol id="monitor" viewBox="0 0 94 94">
    <path fill-rule="evenodd" d="M396,92h47a4,4,0,0,1,4,4v28.844a4,4,0,0,1-4,4H396a4,4,0,0,1-4-4V96A4,4,0,0,1,396,92Zm2.573,4.594h41.854a2,2,0,0,1,2,2v23.625a2,2,0,0,1-2,2H398.573a2,2,0,0,1-2-2V98.594A2,2,0,0,1,398.573,96.594Zm11.75,35.281h18.354V136H410.323v-4.125Z" transform="translate(-372.5 -67)"/>
  </symbol>

  <symbol id="radio" viewBox="-20 -20 94 94">
    <path fill-rule="evenodd" d="M1424,357h-5l-11.57-5.907a1,1,0,0,0-.89,1.8L1414,357h-21a2,2,0,0,0-2,2v17.991a2.011,2.011,0,0,0,2,2.01h31a2.011,2.011,0,0,0,2-2.01V359A2,2,0,0,0,1424,357Zm-1,17.981a1,1,0,0,1-1,1h-27a1,1,0,0,1-1-1V361a1,1,0,0,1,1-1h27a1,1,0,0,1,1,1v13.981Zm-27.02-9.99h0a1.158,1.158,0,0,0,1.26,1h7.51a1.152,1.152,0,0,0,1.26-1h0a1.152,1.152,0,0,0-1.26-1h-7.51A1.158,1.158,0,0,0,1395.98,364.991Zm0,3.015h0a1.158,1.158,0,0,0,1.26,1.005h7.51a1.152,1.152,0,0,0,1.26-1.005h0a1.152,1.152,0,0,0-1.26-1h-7.51A1.158,1.158,0,0,0,1395.98,368.006Zm0,2.984h0a1.158,1.158,0,0,0,1.26,1h7.51a1.152,1.152,0,0,0,1.26-1h0a1.152,1.152,0,0,0-1.26-1h-7.51A1.158,1.158,0,0,0,1395.98,370.99Zm18.98-9.47a6.03,6.03,0,1,0,6,6.029A6.019,6.019,0,0,0,1414.96,361.52Zm0,10.049a4.02,4.02,0,1,1,4-4.02A4.009,4.009,0,0,1,1414.96,371.569Z" transform="translate(-1382.5 -339)"/>
  </symbol>

  <symbol id="selection-radio" viewBox="0 0 52 100">
    <path d="M31,83.5V94h13c3.3,0,6,2.7,6,6H3c0,0,2.7-6,6-6h12V83.5C9,81.2,0,70.6,0,58V37c0-1.7,1.3-3,3-3s3,1.3,3,3v21
    	c0,11,9,20,20,20c11,0,20-9,20-20V37c0-1.7,1.3-3,3-3c1.7,0,3,1.3,3,3v21C52,70.6,43,81.2,31,83.5z M26,72c-7.7,0-14-6.3-14-14v-3
    	h17c1.7,0,3-1.3,3-3c0-1.7-1.3-3-3-3H12v-6h17c1.7,0,3-1.3,3-3c0-1.7-1.3-3-3-3H12v-6h17c1.7,0,3-1.3,3-3c0-1.7-1.3-3-3-3H12v-5h28
    	v38C40,65.7,33.7,72,26,72z M26,0c7.7,0,14,6.3,14,14H12C12,6.3,18.3,0,26,0z"/>
  </symbol>

  <!-- SETTINGS -->
  <symbol id="settings-summary" viewBox="0 0 140 140">
    <path fill-rule="evenodd" d="M376,437.99v-8h44v8H376Zm0-40h44v8H376v-8ZM360,446h8v8h-8v-8Zm0-16h8v8h-8v-8Zm0-16h8v8h-8v-8Zm0-16h8v8h-8v-8Zm52,23.99H376v-8h36v8Zm0,32H376v-8h36v8Z" transform="translate(-320 -356)"/>
  </symbol>

  <symbol id="settings-favorites" viewBox="0 0 140 140">
    <path fill-rule="evenodd" d="M650,386.625a43.016,43.016,0,1,1-43,43.016A43.008,43.008,0,0,1,650,386.625Zm0,4.781a38.25,38.25,0,1,1-38.25,38.25A38.25,38.25,0,0,1,650,391.406Zm0.479,10.045,7.039,18.772,18.773,1.173L661.038,434.3l5.867,18.773-16.426-10.56-16.426,10.56L639.92,434.3,624.667,421.4l18.772-1.173Z" transform="translate(-580 -359.64)"/>
  </symbol>

  <symbol id="settings-account" viewBox="0 0 140 140">
    <path fill-rule="evenodd" d="M910,464a38,38,0,1,1,38-38A38,38,0,0,1,910,464Zm0-68a30,30,0,1,0,30,30A30,30,0,0,0,910,396Z" transform="translate(-840 -356)"/>
    <path fill-rule="evenodd" d="M904,432h12a8,8,0,0,1,8,8v16H896V440A8,8,0,0,1,904,432Zm16-13a10,10,0,1,1-10-10A10,10,0,0,1,920,419Z" transform="translate(-840 -356)"/>
  </symbol>

  <symbol id="settings-reminders" viewBox="0 0 140 140"> <!-- This icon is also used for CTA buttons -->
    <path fill-rule="evenodd" d="M1178.64,451.544l17.26-21.087c8.67-8.719,11.5-20.222,4.17-29.7a5.937,5.937,0,0,0,5.19-10.056l-0.01-.01a5.933,5.933,0,0,0-10.01,5.35c-9.5-6.976-20.72-4-29.29,4.59l-20.91,17.29Zm22.42-59.561a2.84,2.84,0,0,1,2.06.854,2.9,2.9,0,0,1,.86,2.066,2.943,2.943,0,0,1-.83,2.064,2.9,2.9,0,0,1-2.58.8l-2-.335-0.37-1.96a2.926,2.926,0,0,1,.8-2.639A2.863,2.863,0,0,1,1201.06,391.983Zm-22.95,63.2-37.12-37.146a6.726,6.726,0,0,0-.6-0.329,5.349,5.349,0,0,0-5.87,8.709l18.17,18.138a6.554,6.554,0,1,0,8.79,8.77l8.17,8.157A5.326,5.326,0,0,0,1178.11,455.186Z" transform="translate(-1099.985 -356)"/>
  </symbol>

  <symbol id="settings-pin" viewBox="0 0 140 140">
    <path fill-rule="evenodd" d="M1480,464h-40a4,4,0,0,1-4-4V436a4,4,0,0,1,4-4h2V421a8,8,0,0,1,8-8h20a8,8,0,0,1,8,8v11h2a4,4,0,0,1,4,4v24A4,4,0,0,1,1480,464Zm-23-12.683V457h6v-5.683A7,7,0,1,0,1457,451.317ZM1470,421h-20v11h20V421Zm-12-28h-76v50h48v5h-53V388h86v19h-5V393Z" transform="translate(-1360.5 -356)"/>
  </symbol>

  <symbol id="settings-language" viewBox="0 0 140 140">
    <path fill-rule="evenodd"  d="M1701.61,472.578h0c-0.87.215-1.74,0.4-2.63,0.571l-0.5.089c-0.72.128-1.44,0.241-2.18,0.337-0.23.031-.47,0.062-0.71,0.09-0.68.08-1.38,0.143-2.08,0.193-0.24.018-.48,0.042-0.73,0.056-0.92.053-1.85,0.086-2.78,0.086-0.97,0-1.93-.037-2.88-0.094-0.27-.015-0.53-0.04-0.8-0.06-0.71-.055-1.42-0.123-2.13-0.208-0.26-.032-0.52-0.063-0.77-0.1-0.81-.111-1.61-0.241-2.41-0.392-0.12-.023-0.24-0.04-0.36-0.064a48,48,0,0,1-.1-94.148h0q2.295-.458,4.65-0.7c0.09-.008.17-0.011,0.25-0.018,0.7-.067,1.41-0.124,2.13-0.16,0.8-.04,1.61-0.061,2.42-0.061,0.77,0,1.53.021,2.29,0.058,0.53,0.025,1.05.069,1.57,0.11,0.2,0.017.41,0.027,0.61,0.047,0.67,0.062,1.34.142,2,.231l0.11,0.014A48,48,0,0,1,1701.61,472.578ZM1722.88,445h-15.33a67.509,67.509,0,0,1-7.07,17.525A38.049,38.049,0,0,0,1722.88,445Zm5.12-19a38.131,38.131,0,0,0-1.08-9h-17.33c0.25,2.619.41,5.28,0.41,8a83.9,83.9,0,0,1-.6,10h17.51A37.62,37.62,0,0,0,1728,426Zm-76,0a38.131,38.131,0,0,0,1.08,9h16.52a83.9,83.9,0,0,1-.6-10c0-2.719.16-5.381,0.41-8h-16.34A38.135,38.135,0,0,0,1652,426Zm26-1a75.773,75.773,0,0,0,.66,10h21.68a75.773,75.773,0,0,0,.66-10,77.572,77.572,0,0,0-.41-8h-22.18A77.572,77.572,0,0,0,1678,425Zm11.5,38.083A52.863,52.863,0,0,0,1698.29,445h-17.58A52.863,52.863,0,0,0,1689.5,463.083Zm-11.19-.921A67.731,67.731,0,0,1,1671.45,445h-14.33A38.062,38.062,0,0,0,1678.31,462.162ZM1657.11,407h13.88a70.346,70.346,0,0,1,5.98-16.709A38.087,38.087,0,0,0,1657.11,407Zm33.19-18.994c-0.1,0-.2-0.008-0.3-0.008-0.44,0-.88.019-1.32,0.034A55.214,55.214,0,0,0,1680.17,407h18.66A55.117,55.117,0,0,0,1690.3,388.006Zm11.52,1.877A69.826,69.826,0,0,1,1708.01,407h14.87A38.091,38.091,0,0,0,1701.82,389.883Z" transform="translate(-1620 -356)"/>
  </symbol>

  <symbol id="settings-timezone" viewBox="0 0 140 140">
    <path fill-rule="evenodd" d="M1690,474a48,48,0,1,1,48-48A48,48,0,0,1,1690,474Zm0-86a38,38,0,1,0,38,38A38,38,0,0,0,1690,388Zm19.25,55.93L1685.12,430H1685V402h8v23.309L1713.25,437Z" transform="translate(-1620 -356)"/>
  </symbol>

  <symbol id="settings-about" viewBox="0 0 140 140">
    <path fill-rule="evenodd" d="M390,464a38,38,0,1,1,38-38A38,38,0,0,1,390,464Zm0-68a30,30,0,1,0,30,30A30,30,0,0,0,390,396Zm-4,25h8v24h-8V421Zm0-15h8v8h-8v-8Z" transform="translate(-320 -356)"/>
  </symbol>

  <symbol id="settings-quality" viewBox="0 0 140 140">
    <path d="M611,400h54a12,12,0,0,1,12,12v26a12,12,0,0,1-12,12H611a12,12,0,0,1-12-12V412A12,12,0,0,1,611,400Zm90-5v62l-38-31.025Z" transform="translate(-580 -356)"/>
  </symbol>

  <symbol id="settings-network" viewBox="0 0 140 140">
    <path fill-rule="evenodd" d="M849.9,399.425a94.995,94.995,0,0,1,120.135-.046L909.953,473Z" transform="translate(-839.968 -355.5)"/>
  </symbol>

  <symbol id="settings-miscellaneous" viewBox="0 0 140 140">
    <path fill-rule="evenodd" d="M1129,393h82a6,6,0,0,1,6,6v54a6,6,0,0,1-6,6h-82a6,6,0,0,1-6-6V399A6,6,0,0,1,1129,393Zm75,35h-7v21h-6V428h-7v-8h7V403h6v17h7v8Zm-31,21h-6V438h-7v-8h7V403h6v27h7v8h-7v11Zm-24,0h-6V422h-7v-8h7V403h6v11h7v8h-7v27Z" transform="translate(-1100 -356)"/>
  </symbol>

  <symbol id="settings-hdmiyuv" viewBox="0 0 140 140">
    <path fill-rule="evenodd" d="M1489,429.677c-3.34,3.345-6.31,6.208-11.4,11.3-1.25,1.255-2.63,3.027-6.52,3.027H1430v-8h39.08c2.95,0,4.27-1.772,5.52-3.027,5.09-5.088,4.06-3.951,7.4-7.3,1.68-1.683,2-1.984,2-5.677v-2c0-2.209.21-2-2-2h-52v-8h58a4,4,0,0,1,4,4v11C1492,427,1490.68,427.994,1489,429.677Zm-118,0c3.34,3.345,6.31,6.208,11.4,11.3,1.25,1.255,2.64,3.027,6.52,3.027H1430v-8h-39.08c-2.95,0-4.27-1.772-5.52-3.027-5.09-5.088-4.06-3.951-7.4-7.3-1.68-1.683-2-1.984-2-5.677v-2c0-2.209-.21-2,2-2h52v-8h-58a4,4,0,0,0-4,4v11C1368,427,1369.32,427.994,1371,429.677Z" transform="translate(-1360 -356)"/>
  </symbol>

  <symbol id="settings-demomode" viewBox="0 0 140 140">
    <path fill-rule="evenodd" d="M1701,438l-3-5h43V395h-70v28l-5-4V390h80v48h-45Zm-9,4c-4.11,1.611-8.9,3.309-11,4s-4.48,1.642-6,0-8-8-8-8v24h-32V429c0-2.326.85-2.85,2-4s5.26-5,10-5v-2.838a10,10,0,1,1,8,0v2.856c2.37,0.077,6.58.458,8,1.982,1.66,1.773,16,16,16,16s7.52-2.2,10-3,6.02-1.192,7,1C1697.02,438.3,1696.11,440.389,1692,442Zm-38.87-10.129L1654,458h-6l0.87-26.129L1645,428h12Z" transform="translate(-1620.5 -356)"/>
  </symbol>

  <symbol id="settings-software" viewBox="0 0 140 140">
    <path fill-rule="evenodd" d="M1737,435h-10a3,3,0,0,1,0-6h10A3,3,0,0,1,1737,435Zm0-12h-10a3,3,0,0,1,0-6h10A3,3,0,0,1,1737,423Zm0-12h-10a3,3,0,0,1,0-6h10A3,3,0,0,1,1737,411Zm-26,44h-42a8,8,0,0,1-8-8V405a8,8,0,0,1,8-8h42a8,8,0,0,1,8,8v42A8,8,0,0,1,1711,455Zm-3-62a3,3,0,0,1-3-3V380a3,3,0,0,1,6,0v10A3,3,0,0,1,1708,393Zm-12,0a3,3,0,0,1-3-3V380a3,3,0,0,1,6,0v10A3,3,0,0,1,1696,393Zm-12,0a3,3,0,0,1-3-3V380a3,3,0,0,1,6,0v10A3,3,0,0,1,1684,393Zm-12,0a3,3,0,0,1-3-3V380a3,3,0,0,1,6,0v10A3,3,0,0,1,1672,393Zm-19,54h-10a3,3,0,0,1,0-6h10A3,3,0,0,1,1653,447Zm0-12h-10a3,3,0,0,1,0-6h10A3,3,0,0,1,1653,435Zm0-12h-10a3,3,0,0,1,0-6h10A3,3,0,0,1,1653,423Zm0-12h-10a3,3,0,0,1,0-6h10A3,3,0,0,1,1653,411Zm19,48a3,3,0,0,1,3,3v10a3,3,0,0,1-6,0V462A3,3,0,0,1,1672,459Zm12,0a3,3,0,0,1,3,3v10a3,3,0,0,1-6,0V462A3,3,0,0,1,1684,459Zm12,0a3,3,0,0,1,3,3v10a3,3,0,0,1-6,0V462A3,3,0,0,1,1696,459Zm12,0a3,3,0,0,1,3,3v10a3,3,0,0,1-6,0V462A3,3,0,0,1,1708,459Zm19-18h10a3,3,0,0,1,0,6h-10A3,3,0,0,1,1727,441Z" transform="translate(-1620 -356)"/>
  </symbol>

  <symbol id="settings-faq" viewBox="0 0 140 140">
    <path d="M56.254 85.95h33.66c3.877 0 7.05-3.173 7.05-7.05V40.13c0-6.345-5.2-11.544-11.632-11.544h-46.7A11.62 11.62 0 0 0 27 40.216v34.19c0 6.08 4.582 11.014 10.486 11.543l-3.172 12.687 21.94-12.688zm7.402-9.694H59.69v-4.582h3.966v4.582zM48.06 41.98c2.026-1.94 4.317-2.027 6.872-2.027l14.45-.53c3.526.177 8.196.442 10.4 3.79 1.32 2.027 1.32 3.965 1.41 6.168 0 .618.087 1.147.087 1.675-.09 3.35-.97 5.11-2.028 6.168-2.203 2.203-6.168 2.82-9.076 3.26-1.498.177-3.084.353-4.494 1.146-1.498.88-1.674 1.85-1.85 3.524h-4.318c0-2.556 0-4.318 1.94-6.08 1.76-1.674 3.7-1.94 5.903-2.38 1.145-.176 2.29-.44 3.524-.616 1.675-.264 3.35-.353 4.67-1.498 1.41-1.234 1.41-2.644 1.41-3.26 0-.617-.087-1.322-.087-2.027-.176-2.203-.353-4.053-2.203-5.11-1.674-.97-3.348-.97-5.022-.97l-11.632.176c-3.26.176-5.375.616-6.432 1.762-1.41 1.498-1.145 5.022-1.057 6.696h-4.494c-.088-5.287-.088-7.93 2.026-9.868zM113 63.744V89.12c0 5.464-3.79 10.134-8.988 11.28l2.82 11.014-18.592-10.75H68.06c-5.726 0-10.572-4.23-11.453-9.693h37.36c4.406 0 8.02-3.61 8.02-8.017v-30.84c6.167.264 11.013 5.375 11.013 11.63z"/>
  </symbol>

  <symbol id="settings-tv" viewBox="0 0 140 140">
    <path fill-rule="evenodd" d="M608.75,389.5h82.5a4,4,0,0,1,4,4v52.312a4,4,0,0,1-4,4h-82.5a4,4,0,0,1-4-4V393.5A4,4,0,0,1,608.75,389.5Zm5.562,7.531h71.375a2,2,0,0,1,2,2v41.25a2,2,0,0,1-2,2H614.312a2,2,0,0,1-2-2v-41.25A2,2,0,0,1,614.312,397.031Zm20.594,57.75h30.188v6.75H634.906v-6.75Z" transform="translate(-580 -355.515)"/>
  </symbol>

  <symbol id="settings-cutv" viewBox="0 0 140 140">
    <path fill-rule="evenodd" d="M895.934,427.708a2.912,2.912,0,0,1,0-4.431L916.67,405.51l18.443-15.8a2.953,2.953,0,0,1,4.88,2.215v67.137a2.954,2.954,0,0,1-4.88,2.216l-18.443-15.8Zm7.659,14.132v16.292c0,2.526-2.381,4.971-4.341,3.327l-18.947-15.85-21.326-17.85a2.874,2.874,0,0,1,0-4.442l21.326-17.833,18.947-15.866c1.96-1.645,4.341.836,4.341,3.345v16.292h0l-17.235,14.062a2.875,2.875,0,0,0,0,4.442l17.235,14.081h0Z" transform="translate(-828.969 -355.5)"/>
  </symbol>

  <symbol id="settings-ondemand" viewBox="0 0 140 140">
    <path fill-rule="evenodd" d="M1200.36,462h-59.72a6.636,6.636,0,0,1-6.64-6.636V395.636a6.636,6.636,0,0,1,6.64-6.636h59.72a6.636,6.636,0,0,1,6.64,6.636v59.728A6.636,6.636,0,0,1,1200.36,462Zm-13.27-6.636V428.818h-33.18v26.546h33.18Zm-39.82-59.728h-6.63v6.637h6.63v-6.637Zm0,13.273h-6.63v6.636h6.63v-6.636Zm0,13.273h-6.63v6.636h6.63v-6.636Zm0,13.272h-6.63v6.637h6.63v-6.637Zm0,13.273h-6.63v6.637h6.63v-6.637Zm6.64-53.091v26.546h33.18V395.636h-33.18Zm46.45,0h-6.63v6.637h6.63v-6.637Zm0,13.273h-6.63v6.636h6.63v-6.636Zm0,13.273h-6.63v6.636h6.63v-6.636Zm0,13.272h-6.63v6.637h6.63v-6.637Zm0,13.273h-6.63v6.637h6.63v-6.637Z" transform="translate(-1100.5 -355.5)"/>
  </symbol>

  <symbol id="settings-problem" viewBox="0 0 140 140">
    <path id="path3369" d="M112.972 96.682L75.936 36.066c-2.705-4.45-9.165-4.45-11.888 0L27.03 96.682c-2.83 4.645.5 10.59 5.945 10.59h74.053c5.428 0 8.773-5.963 5.944-10.59zM64.475 55.304a3.38 3.38 0 0 1 3.382-3.38h4.29a3.38 3.38 0 0 1 3.38 3.38V79.24a3.38 3.38 0 0 1-3.38 3.382h-4.29a3.38 3.38 0 0 1-3.382-3.38V55.303zm5.517 43.87a5.727 5.727 0 0 1-5.73-5.73 5.727 5.727 0 0 1 5.73-5.732 5.727 5.727 0 0 1 5.73 5.73 5.727 5.727 0 0 1-5.73 5.73z"/>
  </symbol>

  <symbol id="settings-debug" viewBox="-10 -20 120 120">
    <path class="st0" d="M58.4,56.2c0.9-1.9,1.4-4.1,1.5-6.3c3.8-1,6.6-4.5,6.6-8.6c0-0.9-0.8-1.7-1.7-1.7c-0.9,0-1.7,0.8-1.7,1.7
		c0,2.3-1.4,4.2-3.3,5.1c-0.2-1.8-0.6-3.5-1.3-5c3.1-1.4,5.4-4.5,5.4-8.2c0-0.9-0.8-1.7-1.7-1.7s-1.7,0.8-1.7,1.7
		c0,2.4-1.5,4.4-3.6,5.2C55.3,35.9,53,34,50.5,33l3.5-6.4c0.2-0.4,0.1-0.9-0.3-1.1c-0.4-0.2-0.9-0.1-1.1,0.3L49,32.3
		c-1-0.3-2-0.4-3.1-0.4s-2.1,0.2-3.1,0.4l-3.6-6.6c-0.2-0.4-0.7-0.6-1.1-0.3c-0.4,0.2-0.6,0.7-0.3,1.1l3.5,6.4
		c-2.6,1.1-4.8,3-6.4,5.4c-2.1-0.8-3.6-2.8-3.6-5.2c0-0.9-0.8-1.7-1.7-1.7c-0.9,0-1.7,0.8-1.7,1.7c0,3.7,2.2,6.8,5.4,8.2
		c-0.6,1.6-1.1,3.3-1.3,5c-1.9-0.9-3.3-2.8-3.3-5.1c0-0.9-0.8-1.7-1.7-1.7c-0.9,0-1.7,0.8-1.7,1.7c0,4.1,2.8,7.6,6.6,8.6
		c0.2,2.3,0.7,4.4,1.5,6.3c-4.6,1.4-8.1,5.7-8.1,10.9c0,0.9,0.8,1.7,1.7,1.7c0.9,0,1.7-0.8,1.7-1.7c0-3.9,2.7-7.1,6.4-7.9
		c2.6,3.6,6.4,6,10.8,6c4.3,0,8.2-2.4,10.8-6c3.6,0.8,6.4,4,6.4,7.9c0,0.9,0.8,1.7,1.7,1.7s1.7-0.8,1.7-1.7
		C66.4,61.9,63,57.6,58.4,56.2z"/>
	<path id="XMLID_1_" class="st1" d="M76.8,51.7c0.8,0.3,1.4,1.1,1.3,1.9c0,0.3-0.1,0.5-0.3,0.7c-0.3,0.3-0.8,0.4-1.3,0.2
		c-0.1-0.1-0.4-0.1-8.1-3.7l-2.3,0.5c2.6,5.1,2.4,10.8-1,14.2c-3.3,3.4-8.9,3.6-14,1l-0.5,2.4c3.5,7.7,3.6,8,3.6,8.2
		c0.2,0.5,0.1,1-0.2,1.3c-0.2,0.2-0.4,0.3-0.7,0.3c-0.8,0-1.6-0.6-1.9-1.4c-0.2-0.5-2.4-5.4-3.7-8.3c-0.2-0.3-0.2-0.7-0.1-1l0.7-3.3
		c-0.7-0.5-1.4-1.1-2.1-1.8l-3.8-3.8l-1.7,2l1.4,6c0.1,0.4-0.1,0.8-0.3,1s-0.6,0.4-1,0.3c-0.8-0.1-1.6-0.9-1.7-1.7l-1.5-6.6
		c0-0.4,0-0.7,0.2-0.9l2.1-2.5L39,55.8c-1.2-1.3-2.4-2.7-3.4-4.3l-4.2,1.3c-0.3,0.1-0.7,0.1-1.1-0.1l-6.8-3.2
		c-0.8-0.4-1.3-1.3-1.2-2c0.2-0.8,1-1,1.8-0.6l6.2,3l3.6-1.1c-0.6-1.3-1.1-2.6-1.3-3.8c0-0.2-0.1-0.6-0.1-1l-4.2-4.2
		c-1.4-1.4-2.3-3.7-2.2-5.4l0.3-4.3c0-0.8,0.4-1.7,1-2.3c0.6-0.6,1.4-1,2.2-1l4.3-0.3c1.6-0.1,3.9,0.9,5.3,2.3l4.2,4.2
		c0.4,0,0.8,0.1,0.9,0.1c1.2,0.2,2.6,0.7,4,1.4l1.2-3.9l-2.9-6.3c-0.4-0.8-0.1-1.6,0.6-1.8c0.7-0.2,1.6,0.4,2,1.2l3.2,6.9
		c0.2,0.4,0.2,0.8,0.1,1.1L51.4,36c1.5,1,2.9,2.1,4.1,3.3l0.9,0.9l2.5-2.1c0.2-0.2,0.6-0.3,0.9-0.2l6.3,1.7c0.8,0.1,1.6,0.9,1.7,1.7
		c0.1,0.4-0.1,0.8-0.3,1c-0.2,0.2-0.6,0.3-1,0.3L60.8,41l-2,1.7l3.8,3.8c0.7,0.7,1.3,1.4,1.8,2.1l3.2-0.7c0.3-0.1,0.6,0,1,0.1
		C71.5,49.2,76.3,51.5,76.8,51.7z"/>
	<path class="st1" d="M48,0C21.5,0,0,21.5,0,48s21.5,48,48,48s48-21.5,48-48S74.5,0,48,0z M48,11.2c8.1,0,15.7,2.7,21.8,7.1
		L18.3,69.8c-4.5-6.1-7.1-13.6-7.1-21.8C11.2,27.7,27.7,11.2,48,11.2z M48,84.8c-8.1,0-15.6-2.7-21.7-7.1l51.4-51.4
		c4.5,6.1,7.1,13.6,7.1,21.7C84.8,68.3,68.3,84.8,48,84.8z"/>
  </symbol>

  <symbol id="settings-system" viewBox="0 0 140 140">
    <path id="path3399" d="M57.307 78.327l4.377 4.378-12.13 12.13-1.24 5.637-14.702 9.54L30 106.4l9.54-14.702 5.636-1.24 12.13-12.13zm40.75-43.504c.53-.53 1.368-.53 1.897 0 .53.53.53 1.368 0 1.897L78.72 57.952l3.358 3.356 21.232-21.25c.53-.53 1.368-.53 1.897 0 .53.53.53 1.368 0 1.897l-21.25 21.25 2.918 2.92 20.43-20.43a9.17 9.17 0 0 0 0-12.988 9.17 9.17 0 0 0-12.988 0l-20.43 20.43 2.92 2.918 21.25-21.232zm8.41 56.382c4.304 4.305 4.304 11.273 0 15.56-4.306 4.305-11.274 4.305-15.56 0L51.523 67.4a18.74 18.74 0 0 1-15.815-5.325c-5.363-5.363-6.804-13.152-4.342-19.828l11 11c1.605 1.604 4.213 1.604 5.836 0l4.743-4.744a4.14 4.14 0 0 0 0-5.837L41.73 31.448c6.82-2.864 14.993-1.514 20.556 4.05a18.733 18.733 0 0 1 5.18 16.708l39 39zm-3.14 4.086a5.725 5.725 0 0 0-8.08 0 5.725 5.725 0 0 0 0 8.082 5.725 5.725 0 0 0 8.08 0c2.245-2.225 2.245-5.837 0-8.08z"/>
  </symbol>

  <!-- cta -->
  <symbol id="cta-drag" viewBox="0 0 38 30">
    <path fill-rule="evenodd" d="M367,568l14,15.124L367,598V568Zm-10,0-14,15.124L357,598V568Z" transform="translate(-343 -568)"/>
  </symbol>

  <symbol id="cta-check" viewBox="0 0 34 34">
    <path fill-rule="evenodd" d="M233,566a17,17,0,1,1-17,17A17,17,0,0,1,233,566Zm-1.1,25.946,10.818-13.909-3.864-3.09-7.727,10.045-3.863-3.091-3.091,3.863Z" transform="translate(-216 -566)"/>
  </symbol>

  <symbol id="cta-trash" viewBox="0 0 30.75 29.438">
    <path fill-rule="evenodd" d="M512.68,573.393v19.214a5.124,5.124,0,0,1-5.124,5.123H492.185a5.124,5.124,0,0,1-5.124-5.123V573.393H484.5v-2.562h2.561v-2.562H512.68v2.562h2.562v2.562H512.68Zm-2.562,0h-20.5v19.214a2.562,2.562,0,0,0,2.562,2.562h15.371a2.562,2.562,0,0,0,2.562-2.562V573.393Zm-6.4,2.562h2.562v15.371h-2.562V575.955Zm-5.123,0h2.562v15.371H498.59V575.955Zm-5.124,0h2.562v15.371h-2.562V575.955Z" transform="translate(-484.5 -568.281)"/>
  </symbol>

  <symbol id="cta-has-reminder" viewBox="0 0 40 40">
    <path fill-rule="evenodd" d="M1106,982a20,20,0,1,1-20,20A20,20,0,0,1,1106,982Zm1.64,27.431,5.02-6.13c2.53-2.54,3.35-5.886,1.22-8.643a1.71,1.71,0,0,0,1.51-.483,1.735,1.735,0,0,0,0-2.442l-0.01,0a1.726,1.726,0,0,0-2.91,1.556c-2.76-2.029-6.03-1.164-8.52,1.335l-6.08,5.029Zm6.53-17.324a0.855,0.855,0,0,1,.6,1.449,0.841,0.841,0,0,1-.75.234l-0.58-.1-0.11-.57a0.867,0.867,0,0,1,.23-0.768A0.856,0.856,0,0,1,1114.17,992.106Zm-6.68,18.384-10.8-10.805a1.254,1.254,0,0,0-.17-0.1,1.556,1.556,0,0,0-1.71,2.531l5.29,5.28a1.836,1.836,0,0,0-.91.95,1.907,1.907,0,0,0,3.46,1.6l2.38,2.37a1.55,1.55,0,0,0,2.65-1.1A1.526,1.526,0,0,0,1107.49,1010.49Z" transform="translate(-1086 -982)"/>
  </symbol>

  <!-- KEYBOARD -->
  <symbol id="keyboard-backspace" viewBox="0 0 24 24">
    <path d="M0 0h24v24H0z" fill="none"/>
    <path d="M22 3H7c-.69 0-1.23.35-1.59.88L0 12l5.41 8.11c.36.53.9.89 1.59.89h15c1.1 0 2-.9 2-2V5c0-1.1-.9-2-2-2zm-3 12.59L17.59 17 14 13.41 10.41 17 9 15.59 12.59 12 9 8.41 10.41 7 14 10.59 17.59 7 19 8.41 15.41 12 19 15.59z"/>
  </symbol>

  <symbol id="keyboard-space" viewBox="0 0 24 24">
    <path d="M0 0h24v24H0V0z" fill="none"/>
    <path d="M18 9v4H6V9H4v6h16V9z"/>
  </symbol>

  <symbol id="keyboard-capslock" viewBox="0 0 24 24">
    <path d="M12 8.41L16.59 13 18 11.59l-6-6-6 6L7.41 13 12 8.41zM6 18h12v-2H6v2z"/>
    <path d="M0 0h24v24H0z" fill="none"/>
  </symbol>

  <symbol id="keyboard-right" viewBox="0 0 24 24">
    <path d="M8.59 16.34l4.58-4.59-4.58-4.59L10 5.75l6 6-6 6z"/>
    <path d="M0-.25h24v24H0z" fill="none"/>
  </symbol>

  <symbol id="keyboard-left" viewBox="0 0 24 24">
    <path d="M15.41 16.09l-4.58-4.59 4.58-4.59L14 5.5l-6 6 6 6z"/>
    <path d="M0-.5h24v24H0z" fill="none"/>
  </symbol>

  <symbol id="keyboard-language" viewBox="0 0 30 30">
    <defs><style>.cls-1{fill:none;stroke:#fff;stroke-width:1.7px;}</style></defs>
    <path class="cls-1" d="M14.28.85a13.5,13.5,0,1,0,.14,0Zm.07,0v27m13.5-13.5H.85M3.9,6A18,18,0,0,0,24.8,6m0,16.62a18,18,0,0,0-20.91,0M13.31,1.2a17.31,17.31,0,0,0,0,26.45m2.08,0a17.31,17.31,0,0,0,0-26.45"/>
    <path d="M0-.5h24v24H0z" fill="none"/>
  </symbol>

  <!-- PLAYBACK MESSAGES -->
  <symbol id="playback-message" x="0px" y="0px" viewBox="0 0 193.3 163.6" style="enable-background:new 0 0 193.3 163.6;" xml:space="preserve">
    <path style="fill-rule:evenodd;" d="M14.9,0h163.6c8.2,0,14.9,6.7,14.9,14.9c0,0,0,0,0,0V119c0,8.2-6.7,14.9-14.9,14.9H14.9
      C6.7,133.8,0,127.2,0,119c0,0,0,0,0,0V14.9C0,6.7,6.7,0,14.9,0C14.9,0,14.9,0,14.9,0z M14.9,14.9h163.6V119H14.9V14.9z M61,141.3
      h71.3c0.8,0,1.5,0.7,1.5,1.5v19.3c0,0.8-0.7,1.5-1.5,1.5H61c-0.8,0-1.5-0.7-1.5-1.5v-19.3C59.5,141.9,60.2,141.3,61,141.3z"/>
  </symbol>
</svg>
